<?xml version="1.0" encoding="utf-8"?><svg xml:space="preserve" viewBox="0 0 100 100" y="0" x="0" xmlns="http://www.w3.org/2000/svg" id="Layer_1" version="1.1" width="47px" height="47px" xmlns:xlink="http://www.w3.org/1999/xlink" style="width:100%;height:100%;background-size:initial;background-repeat-y:initial;background-repeat-x:initial;background-position-y:initial;background-position-x:initial;background-origin:initial;background-image:initial;background-color:rgb(255, 255, 255);background-clip:initial;background-attachment:initial;animation-play-state:paused" ><g class="ldl-scale" style="transform-origin:50% 50%;transform:rotate(0deg) scale(0.8, 0.8);animation-play-state:paused" ><g style="animation-play-state:paused" ><path d="M45 48h10v31H45z" stroke="#333" fill="#e0e0e0" stroke-miterlimit="10" stroke-width="3.5" style="stroke:rgb(51, 51, 51);fill:rgb(224, 224, 224);animation-play-state:paused" ></path>
<path stroke-miterlimit="10" stroke-linejoin="round" stroke-width="3.5" stroke="#333" fill="#e0e0e0" d="M70 85H30l.457-1.702A8.508 8.508 0 0 1 38.672 77h22.655a8.507 8.507 0 0 1 8.215 6.298L70 85z" style="stroke:rgb(51, 51, 51);fill:rgb(224, 224, 224);animation-play-state:paused" ></path>
<path stroke-miterlimit="10" stroke-width="3.5" stroke="#000" opacity=".2" d="M52 48v37h18l-.457-1.702A8.508 8.508 0 0 0 61.328 77H55V48h-3z" style="stroke:rgb(0, 0, 0);animation-play-state:paused" ></path></g>
<path stroke-miterlimit="10" stroke-width="3.5" stroke="#333" fill="#666" d="M79.333 63H20.667A4.666 4.666 0 0 1 16 58.333V23.667A4.666 4.666 0 0 1 20.667 19h58.667A4.666 4.666 0 0 1 84 23.667v34.667A4.666 4.666 0 0 1 79.333 63z" style="stroke:rgb(51, 51, 51);fill:rgb(102, 102, 102);animation-play-state:paused" ></path>
<path stroke-miterlimit="10" stroke="#fff" stroke-linecap="round" stroke-width="3.5" fill="none" d="M21 30.125v-3.459A2.667 2.667 0 0 1 23.667 24H25" style="stroke:rgb(255, 255, 255);animation-play-state:paused" ></path>
<path d="M21 36.75v-1.125" stroke-miterlimit="10" stroke="#fff" stroke-linecap="round" stroke-width="3.5" fill="none" style="stroke:rgb(255, 255, 255);animation-play-state:paused" ></path>
<g style="animation-play-state:paused" ><path fill="#fff" d="M35.299 37.464v-5.751c0-.514.534-1.019 1.079-1.019h2.341c.85 0 1.421-.537 1.421-1.336 0-.8-.584-1.358-1.421-1.358h-2.185c-2.606 0-4.498 1.628-4.498 3.871v5.298c0 .747-.436 1.198-1.347 1.414l-.863.166v2.501l.84.16c.935.221 1.37.673 1.37 1.42v5.297c0 2.244 1.892 3.872 4.498 3.872h2.185c.837 0 1.421-.558 1.421-1.358s-.571-1.337-1.421-1.337h-2.341c-.545 0-1.079-.505-1.079-1.019v-5.751c0-.742-.294-1.422-.903-2.083a4.055 4.055 0 0 0-.508-.453c.188-.143.357-.294.512-.457.605-.655.899-1.334.899-2.077z" style="fill:rgb(255, 255, 255);animation-play-state:paused" ></path>
<path fill="#fff" d="M56.143 37.053c0-.832-.897-1.947-1.815-1.947-.273 0-.516.078-.776.281l-2.176 2.214.289-3.048a.92.92 0 0 0-.221-.747c-.37-.433-1.09-.594-1.456-.594-.301 0-1.046.146-1.433.6-.184.215-.262.478-.225.707l.271 3.062-2.209-2.243a1.17 1.17 0 0 0-.722-.231c-.918 0-1.815 1.115-1.815 1.947 0 .543.237.792.459.907l2.91 2.04-2.904 2.039c-.309.175-.465.481-.465.908 0 .858.854 1.947 1.815 1.947.162 0 .499 0 .778-.281l2.152-2.19-.268 3.025a.915.915 0 0 0 .221.742c.388.454 1.133.6 1.433.6.366 0 1.085-.162 1.455-.595a.9.9 0 0 0 .226-.716l-.292-3.078 2.177 2.214c.277.28.613.28.774.28.961 0 1.815-1.089 1.815-1.947 0-.157 0-.628-.439-.895L52.774 40l2.911-2.04c.221-.115.458-.364.458-.907z" style="fill:rgb(255, 255, 255);animation-play-state:paused" ></path>
<path fill="#fff" d="M69.337 38.589c-.923-.224-1.371-.688-1.371-1.419v-5.298c0-2.243-1.893-3.871-4.5-3.871h-2.183c-.837 0-1.421.558-1.421 1.358 0 .799.571 1.336 1.421 1.336h2.342c.544 0 1.078.505 1.078 1.019v5.751c0 .741.293 1.421.902 2.085.154.161.322.311.508.451a4.243 4.243 0 0 0-.514.458c-.604.658-.896 1.338-.896 2.078v5.751c0 .514-.534 1.019-1.078 1.019h-2.342c-.85 0-1.421.537-1.421 1.337 0 .8.584 1.358 1.421 1.358h2.183c2.607 0 4.5-1.628 4.5-3.872v-5.3c0-.732.448-1.196 1.344-1.414l.864-.165V38.75l-.837-.161z" style="fill:rgb(255, 255, 255);animation-play-state:paused" ></path></g>
<path stroke-miterlimit="10" stroke-width="3.5" stroke="#000" opacity=".2" d="M79.333 19h-12.3l-12.48 44h24.779A4.667 4.667 0 0 0 84 58.333V23.667A4.666 4.666 0 0 0 79.333 19z" style="stroke:rgb(0, 0, 0);animation-play-state:paused" ></path>
<metadata xmlns:d="https://loading.io/stock/" style="animation-play-state:paused" ><d:name style="animation-play-state:paused" >css</d:name>


<d:tags style="animation-play-state:paused" >css,developer,code,frontend,web,engineer,coding,hack,software</d:tags>


<d:license style="animation-play-state:paused" >by</d:license>


<d:slug style="animation-play-state:paused" >kcv0vz</d:slug></metadata></g><!-- generated by https://loading.io/ --></svg>